<svg width="1031.7341796874998px" height="122px" xmlns="http://www.w3.org/2000/svg" viewBox="-265.8670898437499 14 1031.7341796874998 122" style="background: rgba(255, 255, 255, 0);" preserveAspectRatio="xMidYMid"><defs><linearGradient id="editing-shiny-gradient" x1="0.04322727117869957" x2="0.9567727288213004" y1="0.2966316784620999" y2="0.7033683215379001" gradientUnits="objectBoundingBox"><stop offset="0.0" stop-color="#ffb200"></stop><stop offset="0.5" stop-color="#e10057"></stop><stop offset="1.0" stop-color="#5a1a80"></stop></linearGradient><linearGradient id="editing-shiny-gradient2" x1="0" x2="0" y1="0" y2="1"><stop offset="0.2" stop-color="#fff" stop-opacity="0.8"></stop><stop offset="0.8" stop-color="#fff" stop-opacity="0"></stop></linearGradient><filter id="editing-shiny2" x="-100%" y="-100%" width="300%" height="300%"><feMorphology operator="erode" radius="2"></feMorphology></filter><filter id="editing-shiny" x="-100%" y="-100%" width="300%" height="300%"><feFlood flood-color="#fff" result="flood"></feFlood><feConvolveMatrix in="SourceGraphic" result="conv" order="8,8" divisor="1" kernelMatrix="0 0 0 0 0 0 0 0 0 0 0 1 1 0 0 0 0 0 0 1 1 0 0 0 0 0 1 0 0 1 0 0 0 0 1 0 0 1 0 0 0 1 0 0 0 0 1 0 0 1 1 0 0 1 1 0 0 0 0 1 1 0 0 0 "></feConvolveMatrix><feOffset dx="0" dy="4" in="conv" result="offset"></feOffset><feComposite operator="in" in="flood" in2="offset" result="comp"></feComposite><feGaussianBlur in="offset" stdDeviation="3" result="shadow"></feGaussianBlur><feColorMatrix in="shadow" type="matrix" values="0.7 0 0 0 0  0 0.7 0 0 0  0 0 0.7 0 0  0 0 0 0.3 0" result="dark-shadow"></feColorMatrix><feOffset dx="0" dy="4" in="dark-shadow" result="offset-shadow"></feOffset><feOffset dx="0" dy="2" in="conv" result="offset-2"></feOffset><feComposite operator="out" in="offset" in2="offset-2" result="edge-diff"></feComposite><feGaussianBlur in="edge-diff" stdDeviation="1" result="edge-blur"></feGaussianBlur><feColorMatrix in="edge-blur" result="edge-shadow" type="matrix" values="0 0 0 0 0  0 0 0 0 0  0 0 0 0 0  0 0 0 0.5 0"></feColorMatrix><feComposite operator="in" in="edge-shadow" in2="offset" result="edge-shadow-in"></feComposite><feOffset dx="0" dy="1" in="edge-shadow-in" result="edge-shadow-final"></feOffset><feMerge result="out"><feMergeNode in="offset-shadow"></feMergeNode><feMergeNode in="comp"></feMergeNode><feMergeNode in="edge-shadow-final"></feMergeNode><feMergeNode in="SourceGraphic"></feMergeNode></feMerge></filter></defs><g filter="url(#editing-shiny)"><g transform="translate(-121.70341768860817, 104.44000053405762)"><path d="M30.21-33.92L30.21-33.92L30.21-33.92Q25.02-33.92 21.25-35.65L21.25-35.65L19.20-25.28L31.55-25.28L31.55-25.28Q31.55-21.89 29.86-19.74L29.86-19.74L29.86-19.74Q28.16-17.60 25.09-17.60L25.09-17.60L25.09-17.60Q21.76-17.60 18.69-18.82L18.69-18.82L18.69-18.82Q18.05-19.07 17.98-19.14L17.98-19.14L14.34 0L0.38 0L8.51-42.24L37.06-42.24L37.06-42.24Q37.06-38.34 35.23-36.13L35.23-36.13L35.23-36.13Q33.41-33.92 30.21-33.92ZM48.96 1.28L48.96 1.28L48.96 1.28Q34.88 1.28 34.88-11.97L34.88-11.97L34.88-11.97Q34.88-21.38 40.06-27.46L40.06-27.46L40.06-27.46Q45.57-33.92 55.10-33.92L55.10-33.92L55.10-33.92Q62.02-33.92 65.54-30.72L65.54-30.72L65.54-30.72Q69.06-27.52 69.06-20.80L69.06-20.80L69.06-20.80Q69.06-10.56 63.55-4.61L63.55-4.61L63.55-4.61Q58.18 1.28 48.96 1.28ZM50.62-26.56L50.62-26.56L50.62-26.56Q49.86-24.83 49.25-22.24L49.25-22.24L49.25-22.24Q48.64-19.65 47.87-15.55L47.87-15.55L47.87-15.55Q47.10-11.46 47.10-6.40L47.10-6.40L47.10-6.40Q47.10-4.74 47.65-3.65L47.65-3.65L47.65-3.65Q48.19-2.56 49.66-2.56L49.66-2.56L49.66-2.56Q51.14-2.56 52.06-3.26L52.06-3.26L52.06-3.26Q52.99-3.97 53.70-5.63L53.70-5.63L53.70-5.63Q54.98-8.58 56-14.05L56-14.05L56-14.05Q57.02-19.52 57.12-21.89L57.12-21.89L57.12-21.89Q57.22-24.26 57.22-26.02L57.22-26.02L57.22-26.02Q57.22-27.78 56.70-28.93L56.70-28.93L56.70-28.93Q56.19-30.08 54.75-30.08L54.75-30.08L54.75-30.08Q53.31-30.08 52.35-29.18L52.35-29.18L52.35-29.18Q51.39-28.29 50.62-26.56ZM88.13-3.52L88.13-3.52L88.13-3.52Q86.14 1.28 79.81 1.28L79.81 1.28L79.81 1.28Q76.61 1.28 74.56-0.96L74.56-0.96L74.56-0.96Q72.90-2.82 72.90-4.93L72.90-4.93L72.90-4.93Q72.90-9.73 75.14-20.22L75.14-20.22L79.81-44.80L92.80-46.08L86.59-13.70L86.59-13.70Q85.50-8.96 85.50-7.30L85.50-7.30L85.50-7.30Q85.50-3.65 88.13-3.52ZM108.86-3.52L108.86-3.52L108.86-3.52Q106.88 1.28 100.54 1.28L100.54 1.28L100.54 1.28Q97.34 1.28 95.30-0.96L95.30-0.96L95.30-0.96Q93.63-2.82 93.63-4.93L93.63-4.93L93.63-4.93Q93.63-9.73 95.87-20.22L95.87-20.22L100.54-44.80L113.54-46.08L107.33-13.70L107.33-13.70Q106.24-8.96 106.24-7.30L106.24-7.30L106.24-7.30Q106.24-3.65 108.86-3.52ZM128.26 1.28L128.26 1.28L128.26 1.28Q114.18 1.28 114.18-11.97L114.18-11.97L114.18-11.97Q114.18-21.38 119.36-27.46L119.36-27.46L119.36-27.46Q124.86-33.92 134.40-33.92L134.40-33.92L134.40-33.92Q141.31-33.92 144.83-30.72L144.83-30.72L144.83-30.72Q148.35-27.52 148.35-20.80L148.35-20.80L148.35-20.80Q148.35-10.56 142.85-4.61L142.85-4.61L142.85-4.61Q137.47 1.28 128.26 1.28ZM129.92-26.56L129.92-26.56L129.92-26.56Q129.15-24.83 128.54-22.24L128.54-22.24L128.54-22.24Q127.94-19.65 127.17-15.55L127.17-15.55L127.17-15.55Q126.40-11.46 126.40-6.40L126.40-6.40L126.40-6.40Q126.40-4.74 126.94-3.65L126.94-3.65L126.94-3.65Q127.49-2.56 128.96-2.56L128.96-2.56L128.96-2.56Q130.43-2.56 131.36-3.26L131.36-3.26L131.36-3.26Q132.29-3.97 132.99-5.63L132.99-5.63L132.99-5.63Q134.27-8.58 135.30-14.05L135.30-14.05L135.30-14.05Q136.32-19.52 136.42-21.89L136.42-21.89L136.42-21.89Q136.51-24.26 136.51-26.02L136.51-26.02L136.51-26.02Q136.51-27.78 136-28.93L136-28.93L136-28.93Q135.49-30.08 134.05-30.08L134.05-30.08L134.05-30.08Q132.61-30.08 131.65-29.18L131.65-29.18L131.65-29.18Q130.69-28.29 129.92-26.56ZM199.87-10.69L199.87-10.69Q195.65-4.86 191.58-1.79L191.58-1.79L191.58-1.79Q187.52 1.28 183.33 1.28L183.33 1.28L183.33 1.28Q179.14 1.28 177.66 0.45L177.66 0.45L177.66-13.63L177.66-13.63Q174.02-3.90 167.49-0.13L167.49-0.13L167.49-0.13Q165.12 1.28 162.88 1.28L162.88 1.28L162.88 1.28Q158.59 1.28 156.74 0.45L156.74 0.45L156.74 0.45Q156.29-14.21 155.90-18.27L155.90-18.27L155.90-18.27Q155.52-22.34 155.20-24.83L155.20-24.83L155.20-24.83Q154.56-29.82 152.38-31.87L152.38-31.87L152.38-31.87Q155.14-33.92 158.98-33.92L158.98-33.92L158.98-33.92Q166.40-33.92 167.42-24.70L167.42-24.70L167.42-24.70Q167.68-22.53 167.68-20.22L167.68-20.22L167.68-20.22Q167.68-16.77 166.91-4.74L166.91-4.74L166.91-4.74Q168.45-5.44 170.08-7.97L170.08-7.97L170.08-7.97Q171.71-10.50 173.06-13.95L173.06-13.95L173.06-13.95Q176.06-21.95 176.06-28.86L176.06-28.86L176.06-28.86Q176.06-29.95 175.78-31.10L175.78-31.10L175.78-31.10Q175.49-32.26 175.17-32.58L175.17-32.58L175.17-32.58Q177.41-33.92 180.83-33.92L180.83-33.92L180.83-33.92Q184.26-33.92 185.89-31.58L185.89-31.58L185.89-31.58Q187.52-29.25 187.97-24.96L187.97-24.96L187.97-24.96Q188.48-19.52 188.48-16.26L188.48-16.26L188.48-16.26Q188.48-11.71 188.03-4.99L188.03-4.99L188.03-4.99Q191.23-7.30 193.86-14.85L193.86-14.85L193.86-14.85Q196.48-22.40 196.48-27.78L196.48-27.78L196.48-27.78Q196.48-30.14 196.10-31.55L196.10-31.55L196.10-31.55Q198.21-33.92 201.86-33.92L201.86-33.92L201.86-33.92Q204.10-33.92 205.73-32.70L205.73-32.70L205.73-32.70Q207.36-31.49 207.36-29.22L207.36-29.22L207.36-29.22Q207.36-26.94 206.69-24.51L206.69-24.51L206.69-24.51Q206.02-22.08 204.93-19.58L204.93-19.58L204.93-19.58Q202.82-14.59 199.87-10.69L199.87-10.69ZM242.82-2.69L242.82-2.69L242.82-2.69Q239.74 1.28 232.13 1.28L232.13 1.28L232.13 1.28Q228.16 1.28 225.28-1.12L225.28-1.12L225.28-1.12Q222.40-3.52 222.40-6.98L222.40-6.98L222.40-6.98Q222.40-8.90 222.59-9.86L222.59-9.86L226.88-32.64L239.87-33.92L235.20-9.22L235.20-9.22Q234.94-7.81 234.94-6.98L234.94-6.98L234.94-6.98Q234.94-3.26 237.18-3.26L237.18-3.26L237.18-3.26Q239.68-3.26 241.47-6.66L241.47-6.66L241.47-6.66Q242.05-7.74 242.30-9.15L242.30-9.15L246.85-32.64L259.46-33.92L254.72-8.96L254.72-8.96Q254.53-8 254.53-6.98L254.53-6.98L254.53-6.98Q254.53-5.95 255.10-4.83L255.10-4.83L255.10-4.83Q255.68-3.71 257.54-3.46L257.54-3.46L257.54-3.46Q257.15-1.92 255.81-0.90L255.81-0.90L255.81-0.90Q252.99 1.28 249.95 1.28L249.95 1.28L249.95 1.28Q246.91 1.28 245.12 0.19L245.12 0.19L245.12 0.19Q243.33-0.90 242.82-2.69ZM282.05-22.46L282.05-22.46L282.05-22.46Q282.94-24.83 282.94-26.88L282.94-26.88L282.94-26.88Q282.94-30.66 279.87-30.66L279.87-30.66L279.87-30.66Q278.27-30.66 276.96-29.22L276.96-29.22L276.96-29.22Q275.65-27.78 275.65-25.98L275.65-25.98L275.65-25.98Q275.65-24.70 276.67-23.68L276.67-23.68L276.67-23.68Q278.14-22.27 281.92-19.97L281.92-19.97L281.92-19.97Q285.70-17.66 287.14-15.78L287.14-15.78L287.14-15.78Q288.58-13.89 288.58-11.30L288.58-11.30L288.58-11.30Q288.58-8.70 287.33-6.34L287.33-6.34L287.33-6.34Q286.08-3.97 283.84-2.30L283.84-2.30L283.84-2.30Q279.04 1.28 271.36 1.28L271.36 1.28L271.36 1.28Q267.20 1.28 264-0.90L264-0.90L264-0.90Q260.80-3.01 260.80-5.50L260.80-5.50L260.80-5.50Q260.80-8 262.62-9.47L262.62-9.47L262.62-9.47Q264.45-10.94 267.14-10.94L267.14-10.94L267.14-10.94Q269.82-10.94 271.49-9.92L271.49-9.92L271.49-9.92Q270.66-7.81 270.66-6.40L270.66-6.40L270.66-6.40Q270.66-2.18 274.24-2.18L274.24-2.18L274.24-2.18Q275.78-2.18 276.80-3.14L276.80-3.14L276.80-3.14Q277.82-4.10 277.82-5.76L277.82-5.76L277.82-5.76Q277.82-9.02 272.32-12.48L272.32-12.48L272.32-12.48Q267.84-15.42 266.82-16.58L266.82-16.58L266.82-16.58Q265.09-18.62 265.09-21.18L265.09-21.18L265.09-21.18Q265.09-23.74 266.30-26.18L266.30-26.18L266.30-26.18Q267.52-28.61 269.76-30.34L269.76-30.34L269.76-30.34Q274.43-33.92 282.56-33.92L282.56-33.92L282.56-33.92Q286.72-33.92 289.18-32.26L289.18-32.26L289.18-32.26Q291.65-30.59 291.65-27.78L291.65-27.78L291.65-27.78Q291.65-24.96 289.95-23.36L289.95-23.36L289.95-23.36Q288.26-21.76 285.18-21.76L285.18-21.76L285.18-21.76Q283.07-21.76 282.05-22.46ZM321.15 1.28L321.15 1.28L321.15 1.28Q307.07 1.28 307.07-11.97L307.07-11.97L307.07-11.97Q307.07-21.38 312.26-27.46L312.26-27.46L312.26-27.46Q317.76-33.92 327.30-33.92L327.30-33.92L327.30-33.92Q334.21-33.92 337.73-30.72L337.73-30.72L337.73-30.72Q341.25-27.52 341.25-20.80L341.25-20.80L341.25-20.80Q341.25-10.56 335.74-4.61L335.74-4.61L335.74-4.61Q330.37 1.28 321.15 1.28ZM322.82-26.56L322.82-26.56L322.82-26.56Q322.05-24.83 321.44-22.24L321.44-22.24L321.44-22.24Q320.83-19.65 320.06-15.55L320.06-15.55L320.06-15.55Q319.30-11.46 319.30-6.40L319.30-6.40L319.30-6.40Q319.30-4.74 319.84-3.65L319.84-3.65L319.84-3.65Q320.38-2.56 321.86-2.56L321.86-2.56L321.86-2.56Q323.33-2.56 324.26-3.26L324.26-3.26L324.26-3.26Q325.18-3.97 325.89-5.63L325.89-5.63L325.89-5.63Q327.17-8.58 328.19-14.05L328.19-14.05L328.19-14.05Q329.22-19.52 329.31-21.89L329.31-21.89L329.31-21.89Q329.41-24.26 329.41-26.02L329.41-26.02L329.41-26.02Q329.41-27.78 328.90-28.93L328.90-28.93L328.90-28.93Q328.38-30.08 326.94-30.08L326.94-30.08L326.94-30.08Q325.50-30.08 324.54-29.18L324.54-29.18L324.54-29.18Q323.58-28.29 322.82-26.56ZM372.10 1.28L372.10 1.28L372.10 1.28Q364.35 1.28 364.35-4.74L364.35-4.74L364.35-4.74Q364.42-6.40 364.93-9.22L364.93-9.22L366.08-15.10L366.08-15.10Q367.81-23.42 367.81-25.28L367.81-25.28L367.81-25.28Q367.81-28.99 365.63-28.99L365.63-28.99L365.63-28.99Q361.98-28.99 360.06-19.46L360.06-19.46L356.29 0L343.42 1.28L350.08-32.70L360.58-33.92L359.55-27.65L359.55-27.65Q362.56-33.92 371.78-33.92L371.78-33.92L371.78-33.92Q376.26-33.92 378.14-32.03L378.14-32.03L378.14-32.03Q380.03-30.14 380.03-25.92L380.03-25.92L380.03-25.92Q380.03-21.95 377.98-12.67L377.98-12.67L377.98-12.67Q377.02-8.51 377.02-6.94L377.02-6.94L377.02-6.94Q377.02-5.38 377.89-4.48L377.89-4.48L377.89-4.48Q378.75-3.58 380.03-3.46L380.03-3.46L380.03-3.46Q379.39-1.28 377.18 0L377.18 0L377.18 0Q374.98 1.28 372.10 1.28ZM411.58 0L397.63 0L405.76-42.24L419.84-42.24L411.58 0ZM448.32 1.28L448.32 1.28L448.32 1.28Q440.58 1.28 440.58-4.74L440.58-4.74L440.58-4.74Q440.64-6.40 441.15-9.22L441.15-9.22L442.30-15.10L442.30-15.10Q444.03-23.42 444.03-25.28L444.03-25.28L444.03-25.28Q444.03-28.99 441.86-28.99L441.86-28.99L441.86-28.99Q438.21-28.99 436.29-19.46L436.29-19.46L432.51 0L419.65 1.28L426.30-32.70L436.80-33.92L435.78-27.65L435.78-27.65Q438.78-33.92 448-33.92L448-33.92L448-33.92Q452.48-33.92 454.37-32.03L454.37-32.03L454.37-32.03Q456.26-30.14 456.26-25.92L456.26-25.92L456.26-25.92Q456.26-21.95 454.21-12.67L454.21-12.67L454.21-12.67Q453.25-8.51 453.25-6.94L453.25-6.94L453.25-6.94Q453.25-5.38 454.11-4.48L454.11-4.48L454.11-4.48Q454.98-3.58 456.26-3.46L456.26-3.46L456.26-3.46Q455.62-1.28 453.41 0L453.41 0L453.41 0Q451.20 1.28 448.32 1.28ZM480.51-22.46L480.51-22.46L480.51-22.46Q481.41-24.83 481.41-26.88L481.41-26.88L481.41-26.88Q481.41-30.66 478.34-30.66L478.34-30.66L478.34-30.66Q476.74-30.66 475.42-29.22L475.42-29.22L475.42-29.22Q474.11-27.78 474.11-25.98L474.11-25.98L474.11-25.98Q474.11-24.70 475.14-23.68L475.14-23.68L475.14-23.68Q476.61-22.27 480.38-19.97L480.38-19.97L480.38-19.97Q484.16-17.66 485.60-15.78L485.60-15.78L485.60-15.78Q487.04-13.89 487.04-11.30L487.04-11.30L487.04-11.30Q487.04-8.70 485.79-6.34L485.79-6.34L485.79-6.34Q484.54-3.97 482.30-2.30L482.30-2.30L482.30-2.30Q477.50 1.28 469.82 1.28L469.82 1.28L469.82 1.28Q465.66 1.28 462.46-0.90L462.46-0.90L462.46-0.90Q459.26-3.01 459.26-5.50L459.26-5.50L459.26-5.50Q459.26-8 461.09-9.47L461.09-9.47L461.09-9.47Q462.91-10.94 465.60-10.94L465.60-10.94L465.60-10.94Q468.29-10.94 469.95-9.92L469.95-9.92L469.95-9.92Q469.12-7.81 469.12-6.40L469.12-6.40L469.12-6.40Q469.12-2.18 472.70-2.18L472.70-2.18L472.70-2.18Q474.24-2.18 475.26-3.14L475.26-3.14L475.26-3.14Q476.29-4.10 476.29-5.76L476.29-5.76L476.29-5.76Q476.29-9.02 470.78-12.48L470.78-12.48L470.78-12.48Q466.30-15.42 465.28-16.58L465.28-16.58L465.28-16.58Q463.55-18.62 463.55-21.18L463.55-21.18L463.55-21.18Q463.55-23.74 464.77-26.18L464.77-26.18L464.77-26.18Q465.98-28.61 468.22-30.34L468.22-30.34L468.22-30.34Q472.90-33.92 481.02-33.92L481.02-33.92L481.02-33.92Q485.18-33.92 487.65-32.26L487.65-32.26L487.65-32.26Q490.11-30.59 490.11-27.78L490.11-27.78L490.11-27.78Q490.11-24.96 488.42-23.36L488.42-23.36L488.42-23.36Q486.72-21.76 483.65-21.76L483.65-21.76L483.65-21.76Q481.54-21.76 480.51-22.46ZM493.50-6.40L493.50-6.40L493.50-6.40Q493.50-8.13 494.40-12.48L494.40-12.48L497.79-29.76L494.02-29.76L494.27-31.68L494.27-31.68Q501.95-33.98 509.38-39.62L509.38-39.62L512.45-39.62L510.91-32.64L515.90-32.64L515.33-29.76L510.40-29.76L507.14-12.48L507.14-12.48Q506.30-8.51 506.30-7.17L506.30-7.17L506.30-7.17Q506.30-4.10 508.99-3.46L508.99-3.46L508.99-3.46Q508.35-1.28 506.05 0L506.05 0L506.05 0Q503.74 1.28 500.48 1.28L500.48 1.28L500.48 1.28Q497.22 1.28 495.36-0.77L495.36-0.77L495.36-0.77Q493.50-2.82 493.50-6.40ZM518.11-1.92L518.11-1.92L518.11-1.92Q516.61-3.58 515.94-6.21L515.94-6.21L515.94-6.21Q515.26-8.83 515.26-13.12L515.26-13.12L515.26-13.12Q515.26-17.41 516.74-21.31L516.74-21.31L516.74-21.31Q518.21-25.22 520.90-28.03L520.90-28.03L520.90-28.03Q526.40-33.92 535.49-33.92L535.49-33.92L535.49-33.92Q538.75-33.92 541.12-32.83L541.12-32.83L552.06-33.92L547.33-8.96L547.33-8.96Q547.14-8.19 547.14-6.78L547.14-6.78L547.14-6.78Q547.14-5.38 548-4.48L548-4.48L548-4.48Q548.86-3.58 550.14-3.46L550.14-3.46L550.14-3.46Q549.50-1.28 547.17 0L547.17 0L547.17 0Q544.83 1.28 542.21 1.28L542.21 1.28L542.21 1.28Q539.58 1.28 537.82 0.29L537.82 0.29L537.82 0.29Q536.06-0.70 535.55-2.37L535.55-2.37L535.55-2.37Q534.53-0.77 532.35 0.26L532.35 0.26L532.35 0.26Q530.18 1.28 527.26 1.28L527.26 1.28L527.26 1.28Q524.35 1.28 521.98 0.51L521.98 0.51L521.98 0.51Q519.62-0.26 518.11-1.92ZM531.62-27.90L531.62-27.90L531.62-27.90Q530.88-26.75 530.24-24.80L530.24-24.80L530.24-24.80Q529.60-22.85 528.54-17.63L528.54-17.63L528.54-17.63Q527.49-12.42 527.49-8.70L527.49-8.70L527.49-8.70Q527.49-4.99 528.06-3.90L528.06-3.90L528.06-3.90Q528.64-2.82 529.66-2.82L529.66-2.82L529.66-2.82Q531.71-2.82 533.22-4.77L533.22-4.77L533.22-4.77Q534.72-6.72 535.30-10.18L535.30-10.18L538.69-28.93L538.69-28.93Q537.34-30.08 535.78-30.08L535.78-30.08L535.78-30.08Q534.21-30.08 533.28-29.57L533.28-29.57L533.28-29.57Q532.35-29.06 531.62-27.90ZM559.81-26.75L559.81-26.75L559.81-26.75Q561.98-29.82 565.28-31.87L565.28-31.87L565.28-31.87Q568.58-33.92 572.61-33.92L572.61-33.92L572.61-33.92Q576.64-33.92 578.56-32.64L578.56-32.64L591.10-33.92L586.75-9.34L586.75-9.34Q584.51 3.20 579.78 8.13L579.78 8.13L579.78 8.13Q575.23 12.80 566.40 12.80L566.40 12.80L566.40 12.80Q559.68 12.80 555.84 10.69L555.84 10.69L555.84 10.69Q552 8.58 552 5.06L552 5.06L552 5.06Q552 2.43 553.98 0.93L553.98 0.93L553.98 0.93Q555.97-0.58 559.04-0.58L559.04-0.58L559.04-0.58Q561.73-0.58 563.78 0.64L563.78 0.64L563.78 0.64Q564.99 1.28 565.57 2.18L565.57 2.18L565.57 2.18Q564.10 3.46 564.10 5.57L564.10 5.57L564.10 5.57Q564.10 8.32 566.66 8.32L566.66 8.32L566.66 8.32Q570.94 8.32 573.38-1.79L573.38-1.79L573.38-1.79Q574.08-4.54 574.66-7.30L574.66-7.30L574.66-7.30Q571.78-3.78 565.25-3.78L565.25-3.78L565.25-3.78Q560.70-3.78 558.08-5.95L558.08-5.95L558.08-5.95Q555.46-8.13 555.46-13.25L555.46-13.25L555.46-13.25Q555.46-16.45 556.54-20.06L556.54-20.06L556.54-20.06Q557.63-23.68 559.81-26.75ZM568.13-13.06L568.13-13.06L568.13-13.06Q568.13-8.70 570.37-8.70L570.37-8.70L570.37-8.70Q571.90-8.70 573.38-10.37L573.38-10.37L573.38-10.37Q574.53-11.71 574.98-13.70L574.98-13.70L578.24-30.14L578.24-30.14Q577.92-30.21 577.60-30.34L577.60-30.34L577.60-30.34Q576.96-30.59 576.13-30.59L576.13-30.59L576.13-30.59Q572.22-30.59 569.92-24.19L569.92-24.19L569.92-24.19Q568.13-19.20 568.13-13.06ZM613.63-17.98L613.63-17.98L613.63-17.98Q615.94-22.08 615.94-26.24L615.94-26.24L615.94-26.24Q615.94-28.99 613.95-28.99L613.95-28.99L613.95-28.99Q612.42-28.99 610.82-26.37L610.82-26.37L610.82-26.37Q609.15-23.74 608.64-20.35L608.64-20.35L605.31 0L592.06 1.28L598.59-32.64L609.15-33.92L608-27.46L608-27.46Q611.14-33.92 618.18-33.92L618.18-33.92L618.18-33.92Q621.89-33.92 623.90-32L623.90-32L623.90-32Q625.92-30.08 625.92-26.14L625.92-26.14L625.92-26.14Q625.92-22.21 623.33-19.71L623.33-19.71L623.33-19.71Q620.74-17.22 616.32-17.22L616.32-17.22L616.32-17.22Q614.40-17.22 613.63-17.98ZM629.73-1.92L629.73-1.92L629.73-1.92Q628.22-3.58 627.55-6.21L627.55-6.21L627.55-6.21Q626.88-8.83 626.88-13.12L626.88-13.12L626.88-13.12Q626.88-17.41 628.35-21.31L628.35-21.31L628.35-21.31Q629.82-25.22 632.51-28.03L632.51-28.03L632.51-28.03Q638.02-33.92 647.10-33.92L647.10-33.92L647.10-33.92Q650.37-33.92 652.74-32.83L652.74-32.83L663.68-33.92L658.94-8.96L658.94-8.96Q658.75-8.19 658.75-6.78L658.75-6.78L658.75-6.78Q658.75-5.38 659.62-4.48L659.62-4.48L659.62-4.48Q660.48-3.58 661.76-3.46L661.76-3.46L661.76-3.46Q661.12-1.28 658.78 0L658.78 0L658.78 0Q656.45 1.28 653.82 1.28L653.82 1.28L653.82 1.28Q651.20 1.28 649.44 0.29L649.44 0.29L649.44 0.29Q647.68-0.70 647.17-2.37L647.17-2.37L647.17-2.37Q646.14-0.77 643.97 0.26L643.97 0.26L643.97 0.26Q641.79 1.28 638.88 1.28L638.88 1.28L638.88 1.28Q635.97 1.28 633.60 0.51L633.60 0.51L633.60 0.51Q631.23-0.26 629.73-1.92ZM643.23-27.90L643.23-27.90L643.23-27.90Q642.50-26.75 641.86-24.80L641.86-24.80L641.86-24.80Q641.22-22.85 640.16-17.63L640.16-17.63L640.16-17.63Q639.10-12.42 639.10-8.70L639.10-8.70L639.10-8.70Q639.10-4.99 639.68-3.90L639.68-3.90L639.68-3.90Q640.26-2.82 641.28-2.82L641.28-2.82L641.28-2.82Q643.33-2.82 644.83-4.77L644.83-4.77L644.83-4.77Q646.34-6.72 646.91-10.18L646.91-10.18L650.30-28.93L650.30-28.93Q648.96-30.08 647.39-30.08L647.39-30.08L647.39-30.08Q645.82-30.08 644.90-29.57L644.90-29.57L644.90-29.57Q643.97-29.06 643.23-27.90ZM713.22 1.28L713.22 1.28L713.22 1.28Q705.47 1.28 705.47-4.74L705.47-4.74L705.47-4.74Q705.47-7.36 706.59-12.45L706.59-12.45L706.59-12.45Q707.71-17.54 708.10-19.58L708.10-19.58L708.10-19.58Q708.99-24.26 708.99-25.73L708.99-25.73L708.99-25.73Q708.99-28.99 706.56-28.99L706.56-28.99L706.56-28.99Q704.96-28.99 703.42-26.78L703.42-26.78L703.42-26.78Q701.89-24.58 701.18-20.16L701.18-20.16L697.22 0L684.74 1.28L688.19-16.13L688.19-16.13Q688.77-19.01 689.28-22.27L689.28-22.27L689.28-22.27Q689.79-25.54 689.79-26.05L689.79-26.05L689.79-26.05Q689.79-28.99 687.62-28.99L687.62-28.99L687.62-28.99Q686.14-28.99 684.54-26.82L684.54-26.82L684.54-26.82Q682.94-24.64 682.05-20.16L682.05-20.16L678.14 0L665.54 1.28L672.26-32.64L682.69-33.92L681.60-27.46L681.60-27.46Q683.26-30.91 686.34-32.42L686.34-32.42L686.34-32.42Q689.41-33.92 694.21-33.92L694.21-33.92L694.21-33.92Q696.96-33.92 698.75-32.58L698.75-32.58L698.75-32.58Q700.54-31.23 701.12-29.06L701.12-29.06L701.12-29.06Q702.21-31.30 704.99-32.61L704.99-32.61L704.99-32.61Q707.78-33.92 711.20-33.92L711.20-33.92L711.20-33.92Q714.62-33.92 716.32-33.18L716.32-33.18L716.32-33.18Q718.02-32.45 719.04-31.23L719.04-31.23L719.04-31.23Q720.77-28.99 720.77-24.90L720.77-24.90L720.77-24.90Q720.77-20.86 719.04-12.48L719.04-12.48L719.04-12.48Q718.14-8.38 718.14-6.88L718.14-6.88L718.14-6.88Q718.14-5.38 719.01-4.48L719.01-4.48L719.01-4.48Q719.87-3.58 721.15-3.46L721.15-3.46L721.15-3.46Q720.51-1.28 718.30 0L718.30 0L718.30 0Q716.10 1.28 713.22 1.28ZM724.35-3.78L724.35-3.78L724.35-3.78Q724.35-6.21 726.18-7.52L726.18-7.52L726.18-7.52Q728.00-8.83 730.69-8.83L730.69-8.83L730.69-8.83Q733.38-8.83 735.07-7.52L735.07-7.52L735.07-7.52Q736.77-6.21 736.77-3.78L736.77-3.78L736.77-3.78Q736.77-1.34 734.88 0L734.88 0L734.88 0Q732.99 1.34 730.30 1.34L730.30 1.34L730.30 1.34Q727.62 1.34 725.98 0L725.98 0L725.98 0Q724.35-1.34 724.35-3.78ZM727.81-15.81L727.81-15.81L727.81-15.81Q727.81-16.26 727.94-16.90L727.94-16.90L732.93-42.62L732.93-42.62Q735.30-43.52 738.11-43.52L738.11-43.52L738.11-43.52Q740.93-43.52 742.40-41.73L742.40-41.73L742.40-41.73Q743.87-39.94 743.87-37.28L743.87-37.28L743.87-37.28Q743.87-34.62 742.85-31.65L742.85-31.65L742.85-31.65Q741.82-28.67 740.58-25.66L740.58-25.66L740.58-25.66Q739.33-22.66 738.27-19.55L738.27-19.55L738.27-19.55Q737.22-16.45 737.15-13.18L737.15-13.18L737.15-13.18Q735.68-11.52 733.12-11.52L733.12-11.52L733.12-11.52Q730.56-11.52 729.18-12.70L729.18-12.70L729.18-12.70Q727.81-13.89 727.81-15.81Z" fill="url(#editing-shiny-gradient)"></path></g></g><g filter="url(#editing-shiny2)"><g transform="translate(-121.4095791876316, 104.44000053405762)"><path d="M30.21-33.92L30.21-33.92L30.21-33.92Q25.02-33.92 21.25-35.65L21.25-35.65L19.20-25.28L31.55-25.28L31.55-25.28Q31.55-21.89 29.86-19.74L29.86-19.74L29.86-19.74Q28.16-17.60 25.09-17.60L25.09-17.60L25.09-17.60Q21.76-17.60 18.69-18.82L18.69-18.82L18.69-18.82Q18.05-19.07 17.98-19.14L17.98-19.14L14.34 0L0.38 0L8.51-42.24L37.06-42.24L37.06-42.24Q37.06-38.34 35.23-36.13L35.23-36.13L35.23-36.13Q33.41-33.92 30.21-33.92ZM48.96 1.28L48.96 1.28L48.96 1.28Q34.88 1.28 34.88-11.97L34.88-11.97L34.88-11.97Q34.88-21.38 40.06-27.46L40.06-27.46L40.06-27.46Q45.57-33.92 55.10-33.92L55.10-33.92L55.10-33.92Q62.02-33.92 65.54-30.72L65.54-30.72L65.54-30.72Q69.06-27.52 69.06-20.80L69.06-20.80L69.06-20.80Q69.06-10.56 63.55-4.61L63.55-4.61L63.55-4.61Q58.18 1.28 48.96 1.28ZM50.62-26.56L50.62-26.56L50.62-26.56Q49.86-24.83 49.25-22.24L49.25-22.24L49.25-22.24Q48.64-19.65 47.87-15.55L47.87-15.55L47.87-15.55Q47.10-11.46 47.10-6.40L47.10-6.40L47.10-6.40Q47.10-4.74 47.65-3.65L47.65-3.65L47.65-3.65Q48.19-2.56 49.66-2.56L49.66-2.56L49.66-2.56Q51.14-2.56 52.06-3.26L52.06-3.26L52.06-3.26Q52.99-3.97 53.70-5.63L53.70-5.63L53.70-5.63Q54.98-8.58 56-14.05L56-14.05L56-14.05Q57.02-19.52 57.12-21.89L57.12-21.89L57.12-21.89Q57.22-24.26 57.22-26.02L57.22-26.02L57.22-26.02Q57.22-27.78 56.70-28.93L56.70-28.93L56.70-28.93Q56.19-30.08 54.75-30.08L54.75-30.08L54.75-30.08Q53.31-30.08 52.35-29.18L52.35-29.18L52.35-29.18Q51.39-28.29 50.62-26.56ZM88.13-3.52L88.13-3.52L88.13-3.52Q86.14 1.28 79.81 1.28L79.81 1.28L79.81 1.28Q76.61 1.28 74.56-0.96L74.56-0.96L74.56-0.96Q72.90-2.82 72.90-4.93L72.90-4.93L72.90-4.93Q72.90-9.73 75.14-20.22L75.14-20.22L79.81-44.80L92.80-46.08L86.59-13.70L86.59-13.70Q85.50-8.96 85.50-7.30L85.50-7.30L85.50-7.30Q85.50-3.65 88.13-3.52ZM108.86-3.52L108.86-3.52L108.86-3.52Q106.88 1.28 100.54 1.28L100.54 1.28L100.54 1.28Q97.34 1.28 95.30-0.96L95.30-0.96L95.30-0.96Q93.63-2.82 93.63-4.93L93.63-4.93L93.63-4.93Q93.63-9.73 95.87-20.22L95.87-20.22L100.54-44.80L113.54-46.08L107.33-13.70L107.33-13.70Q106.24-8.96 106.24-7.30L106.24-7.30L106.24-7.30Q106.24-3.65 108.86-3.52ZM128.26 1.28L128.26 1.28L128.26 1.28Q114.18 1.28 114.18-11.97L114.18-11.97L114.18-11.97Q114.18-21.38 119.36-27.46L119.36-27.46L119.36-27.46Q124.86-33.92 134.40-33.92L134.40-33.92L134.40-33.92Q141.31-33.92 144.83-30.72L144.83-30.72L144.83-30.72Q148.35-27.52 148.35-20.80L148.35-20.80L148.35-20.80Q148.35-10.56 142.85-4.61L142.85-4.61L142.85-4.61Q137.47 1.28 128.26 1.28ZM129.92-26.56L129.92-26.56L129.92-26.56Q129.15-24.83 128.54-22.24L128.54-22.24L128.54-22.24Q127.94-19.65 127.17-15.55L127.17-15.55L127.17-15.55Q126.40-11.46 126.40-6.40L126.40-6.40L126.40-6.40Q126.40-4.74 126.94-3.65L126.94-3.65L126.94-3.65Q127.49-2.56 128.96-2.56L128.96-2.56L128.96-2.56Q130.43-2.56 131.36-3.26L131.36-3.26L131.36-3.26Q132.29-3.97 132.99-5.63L132.99-5.63L132.99-5.63Q134.27-8.58 135.30-14.05L135.30-14.05L135.30-14.05Q136.32-19.52 136.42-21.89L136.42-21.89L136.42-21.89Q136.51-24.26 136.51-26.02L136.51-26.02L136.51-26.02Q136.51-27.78 136-28.93L136-28.93L136-28.93Q135.49-30.08 134.05-30.08L134.05-30.08L134.05-30.08Q132.61-30.08 131.65-29.18L131.65-29.18L131.65-29.18Q130.69-28.29 129.92-26.56ZM199.87-10.69L199.87-10.69Q195.65-4.86 191.58-1.79L191.58-1.79L191.58-1.79Q187.52 1.28 183.33 1.28L183.33 1.28L183.33 1.28Q179.14 1.28 177.66 0.45L177.66 0.45L177.66-13.63L177.66-13.63Q174.02-3.90 167.49-0.13L167.49-0.13L167.49-0.13Q165.12 1.28 162.88 1.28L162.88 1.28L162.88 1.28Q158.59 1.28 156.74 0.45L156.74 0.45L156.74 0.45Q156.29-14.21 155.90-18.27L155.90-18.27L155.90-18.27Q155.52-22.34 155.20-24.83L155.20-24.83L155.20-24.83Q154.56-29.82 152.38-31.87L152.38-31.87L152.38-31.87Q155.14-33.92 158.98-33.92L158.98-33.92L158.98-33.92Q166.40-33.92 167.42-24.70L167.42-24.70L167.42-24.70Q167.68-22.53 167.68-20.22L167.68-20.22L167.68-20.22Q167.68-16.77 166.91-4.74L166.91-4.74L166.91-4.74Q168.45-5.44 170.08-7.97L170.08-7.97L170.08-7.97Q171.71-10.50 173.06-13.95L173.06-13.95L173.06-13.95Q176.06-21.95 176.06-28.86L176.06-28.86L176.06-28.86Q176.06-29.95 175.78-31.10L175.78-31.10L175.78-31.10Q175.49-32.26 175.17-32.58L175.17-32.58L175.17-32.58Q177.41-33.92 180.83-33.92L180.83-33.92L180.83-33.92Q184.26-33.92 185.89-31.58L185.89-31.58L185.89-31.58Q187.52-29.25 187.97-24.96L187.97-24.96L187.97-24.96Q188.48-19.52 188.48-16.26L188.48-16.26L188.48-16.26Q188.48-11.71 188.03-4.99L188.03-4.99L188.03-4.99Q191.23-7.30 193.86-14.85L193.86-14.85L193.86-14.85Q196.48-22.40 196.48-27.78L196.48-27.78L196.48-27.78Q196.48-30.14 196.10-31.55L196.10-31.55L196.10-31.55Q198.21-33.92 201.86-33.92L201.86-33.92L201.86-33.92Q204.10-33.92 205.73-32.70L205.73-32.70L205.73-32.70Q207.36-31.49 207.36-29.22L207.36-29.22L207.36-29.22Q207.36-26.94 206.69-24.51L206.69-24.51L206.69-24.51Q206.02-22.08 204.93-19.58L204.93-19.58L204.93-19.58Q202.82-14.59 199.87-10.69L199.87-10.69ZM242.82-2.69L242.82-2.69L242.82-2.69Q239.74 1.28 232.13 1.28L232.13 1.28L232.13 1.28Q228.16 1.28 225.28-1.12L225.28-1.12L225.28-1.12Q222.40-3.52 222.40-6.98L222.40-6.98L222.40-6.98Q222.40-8.90 222.59-9.86L222.59-9.86L226.88-32.64L239.87-33.92L235.20-9.22L235.20-9.22Q234.94-7.81 234.94-6.98L234.94-6.98L234.94-6.98Q234.94-3.26 237.18-3.26L237.18-3.26L237.18-3.26Q239.68-3.26 241.47-6.66L241.47-6.66L241.47-6.66Q242.05-7.74 242.30-9.15L242.30-9.15L246.85-32.64L259.46-33.92L254.72-8.96L254.72-8.96Q254.53-8 254.53-6.98L254.53-6.98L254.53-6.98Q254.53-5.95 255.10-4.83L255.10-4.83L255.10-4.83Q255.68-3.71 257.54-3.46L257.54-3.46L257.54-3.46Q257.15-1.92 255.81-0.90L255.81-0.90L255.81-0.90Q252.99 1.28 249.95 1.28L249.95 1.28L249.95 1.28Q246.91 1.28 245.12 0.19L245.12 0.19L245.12 0.19Q243.33-0.90 242.82-2.69ZM282.05-22.46L282.05-22.46L282.05-22.46Q282.94-24.83 282.94-26.88L282.94-26.88L282.94-26.88Q282.94-30.66 279.87-30.66L279.87-30.66L279.87-30.66Q278.27-30.66 276.96-29.22L276.96-29.22L276.96-29.22Q275.65-27.78 275.65-25.98L275.65-25.98L275.65-25.98Q275.65-24.70 276.67-23.68L276.67-23.68L276.67-23.68Q278.14-22.27 281.92-19.97L281.92-19.97L281.92-19.97Q285.70-17.66 287.14-15.78L287.14-15.78L287.14-15.78Q288.58-13.89 288.58-11.30L288.58-11.30L288.58-11.30Q288.58-8.70 287.33-6.34L287.33-6.34L287.33-6.34Q286.08-3.97 283.84-2.30L283.84-2.30L283.84-2.30Q279.04 1.28 271.36 1.28L271.36 1.28L271.36 1.28Q267.20 1.28 264-0.90L264-0.90L264-0.90Q260.80-3.01 260.80-5.50L260.80-5.50L260.80-5.50Q260.80-8 262.62-9.47L262.62-9.47L262.62-9.47Q264.45-10.94 267.14-10.94L267.14-10.94L267.14-10.94Q269.82-10.94 271.49-9.92L271.49-9.92L271.49-9.92Q270.66-7.81 270.66-6.40L270.66-6.40L270.66-6.40Q270.66-2.18 274.24-2.18L274.24-2.18L274.24-2.18Q275.78-2.18 276.80-3.14L276.80-3.14L276.80-3.14Q277.82-4.10 277.82-5.76L277.82-5.76L277.82-5.76Q277.82-9.02 272.32-12.48L272.32-12.48L272.32-12.48Q267.84-15.42 266.82-16.58L266.82-16.58L266.82-16.58Q265.09-18.62 265.09-21.18L265.09-21.18L265.09-21.18Q265.09-23.74 266.30-26.18L266.30-26.18L266.30-26.18Q267.52-28.61 269.76-30.34L269.76-30.34L269.76-30.34Q274.43-33.92 282.56-33.92L282.56-33.92L282.56-33.92Q286.72-33.92 289.18-32.26L289.18-32.26L289.18-32.26Q291.65-30.59 291.65-27.78L291.65-27.78L291.65-27.78Q291.65-24.96 289.95-23.36L289.95-23.36L289.95-23.36Q288.26-21.76 285.18-21.76L285.18-21.76L285.18-21.76Q283.07-21.76 282.05-22.46ZM321.15 1.28L321.15 1.28L321.15 1.28Q307.07 1.28 307.07-11.97L307.07-11.97L307.07-11.97Q307.07-21.38 312.26-27.46L312.26-27.46L312.26-27.46Q317.76-33.92 327.30-33.92L327.30-33.92L327.30-33.92Q334.21-33.92 337.73-30.72L337.73-30.72L337.73-30.72Q341.25-27.52 341.25-20.80L341.25-20.80L341.25-20.80Q341.25-10.56 335.74-4.61L335.74-4.61L335.74-4.61Q330.37 1.28 321.15 1.28ZM322.82-26.56L322.82-26.56L322.82-26.56Q322.05-24.83 321.44-22.24L321.44-22.24L321.44-22.24Q320.83-19.65 320.06-15.55L320.06-15.55L320.06-15.55Q319.30-11.46 319.30-6.40L319.30-6.40L319.30-6.40Q319.30-4.74 319.84-3.65L319.84-3.65L319.84-3.65Q320.38-2.56 321.86-2.56L321.86-2.56L321.86-2.56Q323.33-2.56 324.26-3.26L324.26-3.26L324.26-3.26Q325.18-3.97 325.89-5.63L325.89-5.63L325.89-5.63Q327.17-8.58 328.19-14.05L328.19-14.05L328.19-14.05Q329.22-19.52 329.31-21.89L329.31-21.89L329.31-21.89Q329.41-24.26 329.41-26.02L329.41-26.02L329.41-26.02Q329.41-27.78 328.90-28.93L328.90-28.93L328.90-28.93Q328.38-30.08 326.94-30.08L326.94-30.08L326.94-30.08Q325.50-30.08 324.54-29.18L324.54-29.18L324.54-29.18Q323.58-28.29 322.82-26.56ZM372.10 1.28L372.10 1.28L372.10 1.28Q364.35 1.28 364.35-4.74L364.35-4.74L364.35-4.74Q364.42-6.40 364.93-9.22L364.93-9.22L366.08-15.10L366.08-15.10Q367.81-23.42 367.81-25.28L367.81-25.28L367.81-25.28Q367.81-28.99 365.63-28.99L365.63-28.99L365.63-28.99Q361.98-28.99 360.06-19.46L360.06-19.46L356.29 0L343.42 1.28L350.08-32.70L360.58-33.92L359.55-27.65L359.55-27.65Q362.56-33.92 371.78-33.92L371.78-33.92L371.78-33.92Q376.26-33.92 378.14-32.03L378.14-32.03L378.14-32.03Q380.03-30.14 380.03-25.92L380.03-25.92L380.03-25.92Q380.03-21.95 377.98-12.67L377.98-12.67L377.98-12.67Q377.02-8.51 377.02-6.94L377.02-6.94L377.02-6.94Q377.02-5.38 377.89-4.48L377.89-4.48L377.89-4.48Q378.75-3.58 380.03-3.46L380.03-3.46L380.03-3.46Q379.39-1.28 377.18 0L377.18 0L377.18 0Q374.98 1.28 372.10 1.28ZM411.58 0L397.63 0L405.76-42.24L419.84-42.24L411.58 0ZM448.32 1.28L448.32 1.28L448.32 1.28Q440.58 1.28 440.58-4.74L440.58-4.74L440.58-4.74Q440.64-6.40 441.15-9.22L441.15-9.22L442.30-15.10L442.30-15.10Q444.03-23.42 444.03-25.28L444.03-25.28L444.03-25.28Q444.03-28.99 441.86-28.99L441.86-28.99L441.86-28.99Q438.21-28.99 436.29-19.46L436.29-19.46L432.51 0L419.65 1.28L426.30-32.70L436.80-33.92L435.78-27.65L435.78-27.65Q438.78-33.92 448-33.92L448-33.92L448-33.92Q452.48-33.92 454.37-32.03L454.37-32.03L454.37-32.03Q456.26-30.14 456.26-25.92L456.26-25.92L456.26-25.92Q456.26-21.95 454.21-12.67L454.21-12.67L454.21-12.67Q453.25-8.51 453.25-6.94L453.25-6.94L453.25-6.94Q453.25-5.38 454.11-4.48L454.11-4.48L454.11-4.48Q454.98-3.58 456.26-3.46L456.26-3.46L456.26-3.46Q455.62-1.28 453.41 0L453.41 0L453.41 0Q451.20 1.28 448.32 1.28ZM480.51-22.46L480.51-22.46L480.51-22.46Q481.41-24.83 481.41-26.88L481.41-26.88L481.41-26.88Q481.41-30.66 478.34-30.66L478.34-30.66L478.34-30.66Q476.74-30.66 475.42-29.22L475.42-29.22L475.42-29.22Q474.11-27.78 474.11-25.98L474.11-25.98L474.11-25.98Q474.11-24.70 475.14-23.68L475.14-23.68L475.14-23.68Q476.61-22.27 480.38-19.97L480.38-19.97L480.38-19.97Q484.16-17.66 485.60-15.78L485.60-15.78L485.60-15.78Q487.04-13.89 487.04-11.30L487.04-11.30L487.04-11.30Q487.04-8.70 485.79-6.34L485.79-6.34L485.79-6.34Q484.54-3.97 482.30-2.30L482.30-2.30L482.30-2.30Q477.50 1.28 469.82 1.28L469.82 1.28L469.82 1.28Q465.66 1.28 462.46-0.90L462.46-0.90L462.46-0.90Q459.26-3.01 459.26-5.50L459.26-5.50L459.26-5.50Q459.26-8 461.09-9.47L461.09-9.47L461.09-9.47Q462.91-10.94 465.60-10.94L465.60-10.94L465.60-10.94Q468.29-10.94 469.95-9.92L469.95-9.92L469.95-9.92Q469.12-7.81 469.12-6.40L469.12-6.40L469.12-6.40Q469.12-2.18 472.70-2.18L472.70-2.18L472.70-2.18Q474.24-2.18 475.26-3.14L475.26-3.14L475.26-3.14Q476.29-4.10 476.29-5.76L476.29-5.76L476.29-5.76Q476.29-9.02 470.78-12.48L470.78-12.48L470.78-12.48Q466.30-15.42 465.28-16.58L465.28-16.58L465.28-16.58Q463.55-18.62 463.55-21.18L463.55-21.18L463.55-21.18Q463.55-23.74 464.77-26.18L464.77-26.18L464.77-26.18Q465.98-28.61 468.22-30.34L468.22-30.34L468.22-30.34Q472.90-33.92 481.02-33.92L481.02-33.92L481.02-33.92Q485.18-33.92 487.65-32.26L487.65-32.26L487.65-32.26Q490.11-30.59 490.11-27.78L490.11-27.78L490.11-27.78Q490.11-24.96 488.42-23.36L488.42-23.36L488.42-23.36Q486.72-21.76 483.65-21.76L483.65-21.76L483.65-21.76Q481.54-21.76 480.51-22.46ZM493.50-6.40L493.50-6.40L493.50-6.40Q493.50-8.13 494.40-12.48L494.40-12.48L497.79-29.76L494.02-29.76L494.27-31.68L494.27-31.68Q501.95-33.98 509.38-39.62L509.38-39.62L512.45-39.62L510.91-32.64L515.90-32.64L515.33-29.76L510.40-29.76L507.14-12.48L507.14-12.48Q506.30-8.51 506.30-7.17L506.30-7.17L506.30-7.17Q506.30-4.10 508.99-3.46L508.99-3.46L508.99-3.46Q508.35-1.28 506.05 0L506.05 0L506.05 0Q503.74 1.28 500.48 1.28L500.48 1.28L500.48 1.28Q497.22 1.28 495.36-0.77L495.36-0.77L495.36-0.77Q493.50-2.82 493.50-6.40ZM518.11-1.92L518.11-1.92L518.11-1.92Q516.61-3.58 515.94-6.21L515.94-6.21L515.94-6.21Q515.26-8.83 515.26-13.12L515.26-13.12L515.26-13.12Q515.26-17.41 516.74-21.31L516.74-21.31L516.74-21.31Q518.21-25.22 520.90-28.03L520.90-28.03L520.90-28.03Q526.40-33.92 535.49-33.92L535.49-33.92L535.49-33.92Q538.75-33.92 541.12-32.83L541.12-32.83L552.06-33.92L547.33-8.96L547.33-8.96Q547.14-8.19 547.14-6.78L547.14-6.78L547.14-6.78Q547.14-5.38 548-4.48L548-4.48L548-4.48Q548.86-3.58 550.14-3.46L550.14-3.46L550.14-3.46Q549.50-1.28 547.17 0L547.17 0L547.17 0Q544.83 1.28 542.21 1.28L542.21 1.28L542.21 1.28Q539.58 1.28 537.82 0.29L537.82 0.29L537.82 0.29Q536.06-0.70 535.55-2.37L535.55-2.37L535.55-2.37Q534.53-0.77 532.35 0.26L532.35 0.26L532.35 0.26Q530.18 1.28 527.26 1.28L527.26 1.28L527.26 1.28Q524.35 1.28 521.98 0.51L521.98 0.51L521.98 0.51Q519.62-0.26 518.11-1.92ZM531.62-27.90L531.62-27.90L531.62-27.90Q530.88-26.75 530.24-24.80L530.24-24.80L530.24-24.80Q529.60-22.85 528.54-17.63L528.54-17.63L528.54-17.63Q527.49-12.42 527.49-8.70L527.49-8.70L527.49-8.70Q527.49-4.99 528.06-3.90L528.06-3.90L528.06-3.90Q528.64-2.82 529.66-2.82L529.66-2.82L529.66-2.82Q531.71-2.82 533.22-4.77L533.22-4.77L533.22-4.77Q534.72-6.72 535.30-10.18L535.30-10.18L538.69-28.93L538.69-28.93Q537.34-30.08 535.78-30.08L535.78-30.08L535.78-30.08Q534.21-30.08 533.28-29.57L533.28-29.57L533.28-29.57Q532.35-29.06 531.62-27.90ZM559.81-26.75L559.81-26.75L559.81-26.75Q561.98-29.82 565.28-31.87L565.28-31.87L565.28-31.87Q568.58-33.92 572.61-33.92L572.61-33.92L572.61-33.92Q576.64-33.92 578.56-32.64L578.56-32.64L591.10-33.92L586.75-9.34L586.75-9.34Q584.51 3.20 579.78 8.13L579.78 8.13L579.78 8.13Q575.23 12.80 566.40 12.80L566.40 12.80L566.40 12.80Q559.68 12.80 555.84 10.69L555.84 10.69L555.84 10.69Q552 8.58 552 5.06L552 5.06L552 5.06Q552 2.43 553.98 0.93L553.98 0.93L553.98 0.93Q555.97-0.58 559.04-0.58L559.04-0.58L559.04-0.58Q561.73-0.58 563.78 0.64L563.78 0.64L563.78 0.64Q564.99 1.28 565.57 2.18L565.57 2.18L565.57 2.18Q564.10 3.46 564.10 5.57L564.10 5.57L564.10 5.57Q564.10 8.32 566.66 8.32L566.66 8.32L566.66 8.32Q570.94 8.32 573.38-1.79L573.38-1.79L573.38-1.79Q574.08-4.54 574.66-7.30L574.66-7.30L574.66-7.30Q571.78-3.78 565.25-3.78L565.25-3.78L565.25-3.78Q560.70-3.78 558.08-5.95L558.08-5.95L558.08-5.95Q555.46-8.13 555.46-13.25L555.46-13.25L555.46-13.25Q555.46-16.45 556.54-20.06L556.54-20.06L556.54-20.06Q557.63-23.68 559.81-26.75ZM568.13-13.06L568.13-13.06L568.13-13.06Q568.13-8.70 570.37-8.70L570.37-8.70L570.37-8.70Q571.90-8.70 573.38-10.37L573.38-10.37L573.38-10.37Q574.53-11.71 574.98-13.70L574.98-13.70L578.24-30.14L578.24-30.14Q577.92-30.21 577.60-30.34L577.60-30.34L577.60-30.34Q576.96-30.59 576.13-30.59L576.13-30.59L576.13-30.59Q572.22-30.59 569.92-24.19L569.92-24.19L569.92-24.19Q568.13-19.20 568.13-13.06ZM613.63-17.98L613.63-17.98L613.63-17.98Q615.94-22.08 615.94-26.24L615.94-26.24L615.94-26.24Q615.94-28.99 613.95-28.99L613.95-28.99L613.95-28.99Q612.42-28.99 610.82-26.37L610.82-26.37L610.82-26.37Q609.15-23.74 608.64-20.35L608.64-20.35L605.31 0L592.06 1.28L598.59-32.64L609.15-33.92L608-27.46L608-27.46Q611.14-33.92 618.18-33.92L618.18-33.92L618.18-33.92Q621.89-33.92 623.90-32L623.90-32L623.90-32Q625.92-30.08 625.92-26.14L625.92-26.14L625.92-26.14Q625.92-22.21 623.33-19.71L623.33-19.71L623.33-19.71Q620.74-17.22 616.32-17.22L616.32-17.22L616.32-17.22Q614.40-17.22 613.63-17.98ZM629.73-1.92L629.73-1.92L629.73-1.92Q628.22-3.58 627.55-6.21L627.55-6.21L627.55-6.21Q626.88-8.83 626.88-13.12L626.88-13.12L626.88-13.12Q626.88-17.41 628.35-21.31L628.35-21.31L628.35-21.31Q629.82-25.22 632.51-28.03L632.51-28.03L632.51-28.03Q638.02-33.92 647.10-33.92L647.10-33.92L647.10-33.92Q650.37-33.92 652.74-32.83L652.74-32.83L663.68-33.92L658.94-8.96L658.94-8.96Q658.75-8.19 658.75-6.78L658.75-6.78L658.75-6.78Q658.75-5.38 659.62-4.48L659.62-4.48L659.62-4.48Q660.48-3.58 661.76-3.46L661.76-3.46L661.76-3.46Q661.12-1.28 658.78 0L658.78 0L658.78 0Q656.45 1.28 653.82 1.28L653.82 1.28L653.82 1.28Q651.20 1.28 649.44 0.29L649.44 0.29L649.44 0.29Q647.68-0.70 647.17-2.37L647.17-2.37L647.17-2.37Q646.14-0.77 643.97 0.26L643.97 0.26L643.97 0.26Q641.79 1.28 638.88 1.28L638.88 1.28L638.88 1.28Q635.97 1.28 633.60 0.51L633.60 0.51L633.60 0.51Q631.23-0.26 629.73-1.92ZM643.23-27.90L643.23-27.90L643.23-27.90Q642.50-26.75 641.86-24.80L641.86-24.80L641.86-24.80Q641.22-22.85 640.16-17.63L640.16-17.63L640.16-17.63Q639.10-12.42 639.10-8.70L639.10-8.70L639.10-8.70Q639.10-4.99 639.68-3.90L639.68-3.90L639.68-3.90Q640.26-2.82 641.28-2.82L641.28-2.82L641.28-2.82Q643.33-2.82 644.83-4.77L644.83-4.77L644.83-4.77Q646.34-6.72 646.91-10.18L646.91-10.18L650.30-28.93L650.30-28.93Q648.96-30.08 647.39-30.08L647.39-30.08L647.39-30.08Q645.82-30.08 644.90-29.57L644.90-29.57L644.90-29.57Q643.97-29.06 643.23-27.90ZM713.22 1.28L713.22 1.28L713.22 1.28Q705.47 1.28 705.47-4.74L705.47-4.74L705.47-4.74Q705.47-7.36 706.59-12.45L706.59-12.45L706.59-12.45Q707.71-17.54 708.10-19.58L708.10-19.58L708.10-19.58Q708.99-24.26 708.99-25.73L708.99-25.73L708.99-25.73Q708.99-28.99 706.56-28.99L706.56-28.99L706.56-28.99Q704.96-28.99 703.42-26.78L703.42-26.78L703.42-26.78Q701.89-24.58 701.18-20.16L701.18-20.16L697.22 0L684.74 1.28L688.19-16.13L688.19-16.13Q688.77-19.01 689.28-22.27L689.28-22.27L689.28-22.27Q689.79-25.54 689.79-26.05L689.79-26.05L689.79-26.05Q689.79-28.99 687.62-28.99L687.62-28.99L687.62-28.99Q686.14-28.99 684.54-26.82L684.54-26.82L684.54-26.82Q682.94-24.64 682.05-20.16L682.05-20.16L678.14 0L665.54 1.28L672.26-32.64L682.69-33.92L681.60-27.46L681.60-27.46Q683.26-30.91 686.34-32.42L686.34-32.42L686.34-32.42Q689.41-33.92 694.21-33.92L694.21-33.92L694.21-33.92Q696.96-33.92 698.75-32.58L698.75-32.58L698.75-32.58Q700.54-31.23 701.12-29.06L701.12-29.06L701.12-29.06Q702.21-31.30 704.99-32.61L704.99-32.61L704.99-32.61Q707.78-33.92 711.20-33.92L711.20-33.92L711.20-33.92Q714.62-33.92 716.32-33.18L716.32-33.18L716.32-33.18Q718.02-32.45 719.04-31.23L719.04-31.23L719.04-31.23Q720.77-28.99 720.77-24.90L720.77-24.90L720.77-24.90Q720.77-20.86 719.04-12.48L719.04-12.48L719.04-12.48Q718.14-8.38 718.14-6.88L718.14-6.88L718.14-6.88Q718.14-5.38 719.01-4.48L719.01-4.48L719.01-4.48Q719.87-3.58 721.15-3.46L721.15-3.46L721.15-3.46Q720.51-1.28 718.30 0L718.30 0L718.30 0Q716.10 1.28 713.22 1.28ZM724.35-3.78L724.35-3.78L724.35-3.78Q724.35-6.21 726.18-7.52L726.18-7.52L726.18-7.52Q728.00-8.83 730.69-8.83L730.69-8.83L730.69-8.83Q733.38-8.83 735.07-7.52L735.07-7.52L735.07-7.52Q736.77-6.21 736.77-3.78L736.77-3.78L736.77-3.78Q736.77-1.34 734.88 0L734.88 0L734.88 0Q732.99 1.34 730.30 1.34L730.30 1.34L730.30 1.34Q727.62 1.34 725.98 0L725.98 0L725.98 0Q724.35-1.34 724.35-3.78ZM727.81-15.81L727.81-15.81L727.81-15.81Q727.81-16.26 727.94-16.90L727.94-16.90L732.93-42.62L732.93-42.62Q735.30-43.52 738.11-43.52L738.11-43.52L738.11-43.52Q740.93-43.52 742.40-41.73L742.40-41.73L742.40-41.73Q743.87-39.94 743.87-37.28L743.87-37.28L743.87-37.28Q743.87-34.62 742.85-31.65L742.85-31.65L742.85-31.65Q741.82-28.67 740.58-25.66L740.58-25.66L740.58-25.66Q739.33-22.66 738.27-19.55L738.27-19.55L738.27-19.55Q737.22-16.45 737.15-13.18L737.15-13.18L737.15-13.18Q735.68-11.52 733.12-11.52L733.12-11.52L733.12-11.52Q730.56-11.52 729.18-12.70L729.18-12.70L729.18-12.70Q727.81-13.89 727.81-15.81Z" fill="url(#editing-shiny-gradient2)"></path></g></g><style>text {
  font-size: 64px;
  font-family: Arial Black;
  dominant-baseline: central;
  text-anchor: middle;
}</style></svg>